<svg width="15" height="15" viewBox="0 0 15 15" fill="none" xmlns="http://www.w3.org/2000/svg">
<path d="M11.1802 7.79923L7.89957 6.59048L6.69082 3.30985C6.62925 3.14294 6.518 2.99891 6.37205 2.89718C6.2261 2.79545 6.05247 2.74091 5.87457 2.74091C5.69666 2.74091 5.52303 2.79545 5.37708 2.89718C5.23113 2.99891 5.11988 3.14294 5.05832 3.30985L3.84957 6.59048L0.568942 7.79923C0.402028 7.86079 0.258 7.97205 0.15627 8.118C0.0545405 8.26394 0 8.43757 0 8.61548C0 8.79338 0.0545405 8.96701 0.15627 9.11296C0.258 9.25891 0.402028 9.37017 0.568942 9.43173L3.84957 10.6405L5.05832 13.9211C5.11988 14.088 5.23113 14.232 5.37708 14.3338C5.52303 14.4355 5.69666 14.49 5.87457 14.49C6.05247 14.49 6.2261 14.4355 6.37205 14.3338C6.518 14.232 6.62925 14.088 6.69082 13.9211L7.89957 10.6405L11.1802 9.43173C11.3471 9.37017 11.4911 9.25891 11.5929 9.11296C11.6946 8.96701 11.7491 8.79338 11.7491 8.61548C11.7491 8.43757 11.6946 8.26394 11.5929 8.118C11.4911 7.97205 11.3471 7.86079 11.1802 7.79923ZM10.9208 8.72798L7.47832 9.99673C7.42733 10.0155 7.38102 10.0451 7.3426 10.0835C7.30418 10.1219 7.27457 10.1682 7.25582 10.2192L5.98707 13.6617C5.97854 13.6847 5.96319 13.7045 5.94308 13.7185C5.92297 13.7325 5.89906 13.74 5.87457 13.74C5.85007 13.74 5.82616 13.7325 5.80605 13.7185C5.78594 13.7045 5.77059 13.6847 5.76207 13.6617L4.49332 10.2192C4.47456 10.1682 4.44495 10.1219 4.40653 10.0835C4.36812 10.0451 4.32181 10.0155 4.27082 9.99673L0.828317 8.72798C0.805352 8.71945 0.785545 8.70411 0.771559 8.684C0.757572 8.66388 0.750075 8.63997 0.750075 8.61548C0.750075 8.59098 0.757572 8.56707 0.771559 8.54696C0.785545 8.52685 0.805352 8.5115 0.828317 8.50298L4.27082 7.23423C4.32181 7.21547 4.36812 7.18586 4.40653 7.14744C4.44495 7.10903 4.47456 7.06272 4.49332 7.01173L5.76207 3.56923C5.77059 3.54626 5.78594 3.52646 5.80605 3.51247C5.82616 3.49848 5.85007 3.49099 5.87457 3.49099C5.89906 3.49099 5.92297 3.49848 5.94308 3.51247C5.96319 3.52646 5.97854 3.54626 5.98707 3.56923L7.25582 7.01173C7.27457 7.06272 7.30418 7.10903 7.3426 7.14744C7.38102 7.18586 7.42733 7.21547 7.47832 7.23423L10.9208 8.50298C10.9438 8.5115 10.9636 8.52685 10.9776 8.54696C10.9916 8.56707 10.9991 8.59098 10.9991 8.61548C10.9991 8.63997 10.9916 8.66388 10.9776 8.684C10.9636 8.70411 10.9438 8.71945 10.9208 8.72798ZM7.99957 2.11548C7.99957 2.01602 8.03908 1.92064 8.1094 1.85031C8.17973 1.77999 8.27511 1.74048 8.37457 1.74048H9.49957V0.615479C9.49957 0.516022 9.53908 0.42064 9.6094 0.350313C9.67973 0.279987 9.77511 0.240479 9.87457 0.240479C9.97402 0.240479 10.0694 0.279987 10.1397 0.350313C10.2101 0.42064 10.2496 0.516022 10.2496 0.615479V1.74048H11.3746C11.474 1.74048 11.5694 1.77999 11.6397 1.85031C11.7101 1.92064 11.7496 2.01602 11.7496 2.11548C11.7496 2.21493 11.7101 2.31032 11.6397 2.38064C11.5694 2.45097 11.474 2.49048 11.3746 2.49048H10.2496V3.61548C10.2496 3.71493 10.2101 3.81032 10.1397 3.88064C10.0694 3.95097 9.97402 3.99048 9.87457 3.99048C9.77511 3.99048 9.67973 3.95097 9.6094 3.88064C9.53908 3.81032 9.49957 3.71493 9.49957 3.61548V2.49048H8.37457C8.27511 2.49048 8.17973 2.45097 8.1094 2.38064C8.03908 2.31032 7.99957 2.21493 7.99957 2.11548ZM14.2496 5.11548C14.2496 5.21493 14.2101 5.31032 14.1397 5.38064C14.0694 5.45097 13.974 5.49048 13.8746 5.49048H13.2496V6.11548C13.2496 6.21493 13.2101 6.31032 13.1397 6.38064C13.0694 6.45097 12.974 6.49048 12.8746 6.49048C12.7751 6.49048 12.6797 6.45097 12.6094 6.38064C12.5391 6.31032 12.4996 6.21493 12.4996 6.11548V5.49048H11.8746C11.7751 5.49048 11.6797 5.45097 11.6094 5.38064C11.5391 5.31032 11.4996 5.21493 11.4996 5.11548C11.4996 5.01602 11.5391 4.92064 11.6094 4.85031C11.6797 4.77999 11.7751 4.74048 11.8746 4.74048H12.4996V4.11548C12.4996 4.01602 12.5391 3.92064 12.6094 3.85031C12.6797 3.77999 12.7751 3.74048 12.8746 3.74048C12.974 3.74048 13.0694 3.77999 13.1397 3.85031C13.2101 3.92064 13.2496 4.01602 13.2496 4.11548V4.74048H13.8746C13.974 4.74048 14.0694 4.77999 14.1397 4.85031C14.2101 4.92064 14.2496 5.01602 14.2496 5.11548Z" fill="white"/>
</svg>
